<?xml version="1.0" standalone="no"?>
<!DOCTYPE svg PUBLIC "-//W3C//DTD SVG 20010904//EN"
 "http://www.w3.org/TR/2001/REC-SVG-20010904/DTD/svg10.dtd">
<svg version="1.0" xmlns="http://www.w3.org/2000/svg"
 width="744.000000pt" height="112.000000pt" viewBox="0 0 744.000000 112.000000"
 preserveAspectRatio="xMidYMid meet">

<g transform="translate(0.000000,112.000000) scale(0.100000,-0.100000)"
fill="#000000" stroke="none">
<path d="M950 841 c-87 -27 -165 -95 -204 -180 -39 -86 -22 -283 24 -273 8 2
29 4 47 5 24 2 38 11 55 36 58 85 185 96 252 22 11 -12 26 -21 34 -21 7 0 26
-6 40 -14 15 -8 51 -18 80 -23 46 -8 54 -7 62 7 9 16 31 132 26 137 -1 1 -24
-4 -51 -12 -26 -8 -58 -15 -70 -15 -44 0 -127 32 -162 63 -67 59 -102 176 -73
251 8 23 7 26 -13 25 -12 0 -33 -4 -47 -8z"/>
</g>
</svg>
